<svg xmlns="http://www.w3.org/2000/svg" viewBox="0 0 48 48" fill="none">
  <defs>
    <linearGradient id="appleGradient" x1="0%" y1="0%" x2="100%" y2="100%">
      <stop offset="0%" style="stop-color:#6366f1"/>
      <stop offset="100%" style="stop-color:#8b5cf6"/>
    </linearGradient>
  </defs>

  <!-- Apple logo shape -->
  <path d="M 34 14 C 34 10 31 7 28 7 C 26 7 25 8 24 8 C 23 8 22 7 20 7 C 16 7 12 11 12 17 C 12 24 16 33 20 38 C 22 41 23 42 24 42 C 25 42 26 41 28 38 C 32 33 36 24 36 17 C 36 15 35 14 34 14 Z"
        fill="url(#appleGradient)"/>

  <!-- Leaf -->
  <path d="M 24 7 Q 28 4 30 6" stroke="url(#appleGradient)" stroke-width="2" fill="none" stroke-linecap="round"/>
</svg>
